<svg width="254" height="156" viewBox="0 0 254 156" fill="none" xmlns="http://www.w3.org/2000/svg">
<path d="M252.6 125.76C238.961 112.196 221.317 103.384 202.28 100.63C201.955 100.583 201.624 100.6 201.305 100.681C200.987 100.761 200.688 100.904 200.424 101.1C200.161 101.297 199.939 101.543 199.771 101.825C199.603 102.107 199.492 102.42 199.445 102.745C199.398 103.07 199.415 103.401 199.496 103.719C199.576 104.038 199.719 104.337 199.915 104.6C200.112 104.864 200.358 105.086 200.64 105.254C200.922 105.422 201.235 105.533 201.56 105.58C218.676 108.066 234.617 115.745 247.23 127.58C231.686 141.963 211.402 150.139 190.228 150.553C169.054 150.968 148.465 143.594 132.37 129.83C179.28 126.42 216.68 87.2299 216.93 39.7199C216.931 39.3908 216.868 39.0646 216.743 38.7601C216.618 38.4557 216.434 38.1789 216.201 37.9457C215.969 37.7125 215.693 37.5274 215.389 37.4012C215.085 37.2749 214.759 37.2099 214.43 37.2099V37.2099C195.591 37.2531 177.245 43.2331 162 54.2999C161.554 54.7182 161.277 55.2854 161.221 55.8941C161.165 56.5029 161.334 57.1111 161.696 57.6037C162.058 58.0963 162.588 58.4392 163.186 58.5675C163.784 58.6958 164.408 58.6006 164.94 58.2999C178.635 48.3304 195.009 42.704 211.94 42.1499C210.4 85.8299 175.63 121.5 132.21 124.72C162.95 89.1899 161.82 35.2199 128.61 1.64991C128.132 1.19328 127.496 0.938477 126.835 0.938477C126.174 0.938477 125.538 1.19328 125.06 1.64991C111.467 15.2874 102.633 32.9443 99.87 51.9999C99.8227 52.3249 99.8399 52.6561 99.9206 52.9745C100.001 53.2928 100.144 53.5922 100.34 53.8554C100.537 54.1187 100.783 54.3407 101.065 54.5087C101.347 54.6768 101.66 54.7876 101.985 54.8349C102.31 54.8822 102.641 54.865 102.96 54.7843C103.278 54.7036 103.577 54.561 103.841 54.3646C104.104 54.1682 104.326 53.9218 104.494 53.6396C104.662 53.3575 104.773 53.0449 104.82 52.7199C107.306 35.6036 114.985 19.6626 126.82 7.04991C156.41 38.8299 156.91 88.4399 128.51 121.37C125.12 74.8699 86.41 37.6299 39.51 37.1399C38.8456 37.154 38.2091 37.41 37.72 37.8599C37.485 38.0929 37.2986 38.3702 37.1715 38.6757C37.0445 38.9813 36.9794 39.309 36.98 39.6399V48.1299C36.98 48.2099 36.98 48.2999 36.98 48.3799C38.5471 63.6334 43.982 78.2343 52.77 90.7999C52.9584 91.0691 53.1981 91.2986 53.4752 91.4752C53.7523 91.6518 54.0615 91.7721 54.3851 91.8292C54.7087 91.8863 55.0404 91.8791 55.3613 91.808C55.6821 91.7369 55.9858 91.6034 56.255 91.4149C56.5242 91.2265 56.7537 90.9868 56.9303 90.7097C57.1069 90.4326 57.2272 90.1234 57.2843 89.7998C57.3414 89.4762 57.3342 89.1445 57.2631 88.8236C57.192 88.5028 57.0584 88.1991 56.87 87.9299C48.5779 76.1048 43.433 62.3632 41.92 47.9999V42.1999C85 43.9999 120.26 78.5899 123.47 121.62C88.39 91.3599 34.83 92.6199 1.28 125.45C1.04568 125.682 0.859679 125.959 0.732758 126.263C0.605836 126.568 0.540497 126.895 0.540497 127.225C0.540497 127.555 0.605836 127.882 0.732758 128.186C0.859679 128.491 1.04568 128.768 1.28 129L7.28 135L7.47 135.17C23.5596 148.244 43.6581 155.384 64.39 155.39H64.56C80.71 155.389 96.5629 151.047 110.46 142.82C110.748 142.656 111.001 142.435 111.204 142.172C111.406 141.909 111.554 141.608 111.639 141.288C111.724 140.967 111.744 140.632 111.698 140.303C111.653 139.975 111.542 139.658 111.373 139.373C111.203 139.087 110.979 138.838 110.712 138.64C110.446 138.442 110.142 138.3 109.82 138.22C109.498 138.141 109.163 138.127 108.835 138.178C108.507 138.229 108.193 138.346 107.91 138.52C94.7932 146.284 79.8323 150.383 64.59 150.39H64.34C44.8224 150.377 25.8997 143.671 10.73 131.39L6.63 127.29C39.83 96.6499 92.16 97.3499 124.48 129.29C141.572 146.085 164.577 155.496 188.54 155.496C212.503 155.496 235.508 146.085 252.6 129.29C252.834 129.057 253.02 128.781 253.147 128.476C253.274 128.172 253.339 127.845 253.339 127.515C253.339 127.185 253.274 126.858 253.147 126.553C253.02 126.249 252.834 125.972 252.6 125.74V125.76Z" fill="#AE8367"/>
</svg>
