<svg xmlns="http://www.w3.org/2000/svg" viewBox="0 0 827.87 309.04"><defs><style>.cls-1{fill:#fff;}</style></defs><title>lotus-eater-asia-logo-white</title><g id="Layer_2" data-name="Layer 2"><g id="Layer_1-2" data-name="Layer 1"><path class="cls-1" d="M539.6,124.76a89.54,89.54,0,0,0-50.32-25.13,2.5,2.5,0,0,0-.72,4.95,84.49,84.49,0,0,1,45.67,22,86.42,86.42,0,0,1-114.86,2.25c46.91-3.41,84.31-42.6,84.56-90.11a2.5,2.5,0,0,0-2.5-2.51h0A89.6,89.6,0,0,0,449,53.3a2.5,2.5,0,0,0,2.94,4,84.56,84.56,0,0,1,47-16.15c-1.54,43.68-36.31,79.35-79.73,82.57,30.74-35.53,29.61-89.5-3.6-123.07a2.57,2.57,0,0,0-3.55,0A89.52,89.52,0,0,0,386.87,51a2.5,2.5,0,1,0,4.95.72,84.49,84.49,0,0,1,22-45.67c29.59,31.78,30.09,81.39,1.69,114.32-3.39-46.5-42.1-83.74-89-84.23a2.73,2.73,0,0,0-1.79.72,2.5,2.5,0,0,0-.74,1.78v8.49c0,.08,0,.17,0,.25a90.08,90.08,0,0,0,15.79,42.42,2.5,2.5,0,0,0,4.1-2.87A85.07,85.07,0,0,1,328.92,47v-5.8C372,43,407.26,77.59,410.47,120.62c-35.08-30.26-88.64-29-122.19,3.83a2.5,2.5,0,0,0,0,3.55l6,6,.19.17a90.3,90.3,0,0,0,56.92,20.22h.17a90.11,90.11,0,0,0,45.9-12.57,2.5,2.5,0,1,0-2.55-4.3,85.12,85.12,0,0,1-43.32,11.87h-.25a85.29,85.29,0,0,1-53.61-19l-4.1-4.1c33.2-30.64,85.53-29.94,117.85,2h0a91.4,91.4,0,0,0,128.12,0,2.5,2.5,0,0,0,0-3.55Z"/><path class="cls-1" d="M0,193.07H8.62V256H36.52v8.11H0Z"/><path class="cls-1" d="M38.54,228.57a38.18,38.18,0,0,1,2.69-14.45,34.81,34.81,0,0,1,7.56-11.56,35.3,35.3,0,0,1,11.46-7.71,38.19,38.19,0,0,1,28.65,0,35.44,35.44,0,0,1,11.41,7.71,34.81,34.81,0,0,1,7.56,11.56,40.06,40.06,0,0,1,0,28.86,34.67,34.67,0,0,1-7.56,11.61A35.39,35.39,0,0,1,88.9,262.3a38.19,38.19,0,0,1-28.65,0,35.26,35.26,0,0,1-11.46-7.71A34.67,34.67,0,0,1,41.23,243,38.29,38.29,0,0,1,38.54,228.57Zm9.13,0a28.91,28.91,0,0,0,3.5,14.3,26.09,26.09,0,0,0,23.38,13.59,25.94,25.94,0,0,0,23.38-13.59,31,31,0,0,0,0-28.6,26.73,26.73,0,0,0-46.76,0A28.91,28.91,0,0,0,47.67,228.57Z"/><path class="cls-1" d="M112.59,201.19v-8.11h45.14v8.11H139.47v62.89h-8.62V201.19Z"/><path class="cls-1" d="M166.35,193.07H175v47.67q0,7.3,4,11.77T190.49,257q7.61,0,11.56-4.46t4-11.77V193.07h8.62v47.67a25.9,25.9,0,0,1-3,12.53,22,22,0,0,1-8.37,8.67,27.44,27.44,0,0,1-25.51,0,21.85,21.85,0,0,1-8.42-8.67,25.89,25.89,0,0,1-3-12.53Z"/><path class="cls-1" d="M233,242.57a38.93,38.93,0,0,0,8,10.45,15.6,15.6,0,0,0,10.8,4,13,13,0,0,0,9.13-3.14,10.37,10.37,0,0,0,3.45-8,12,12,0,0,0-2.23-7.61,16.65,16.65,0,0,0-5.83-4.61,68.82,68.82,0,0,0-7.66-3.2q-2.64-.91-5.88-2.38a30.77,30.77,0,0,1-6.19-3.75,18.44,18.44,0,0,1-4.82-5.63,16.58,16.58,0,0,1-1.88-8.22,17.23,17.23,0,0,1,2.64-9.43,18.3,18.3,0,0,1,7.3-6.54,23.09,23.09,0,0,1,10.65-2.38,22.09,22.09,0,0,1,10.09,2.18,24.78,24.78,0,0,1,7.35,5.58,28.77,28.77,0,0,1,4.77,7.15l-7.41,4.26a29.29,29.29,0,0,0-3.35-5.17A16.74,16.74,0,0,0,257,201.9a14.22,14.22,0,0,0-7-1.62q-5.78,0-8.42,2.79a8.86,8.86,0,0,0-2.64,6.24,10.41,10.41,0,0,0,3.55,7.81q3.55,3.35,12.88,6.59a49.6,49.6,0,0,1,6,2.64,26.51,26.51,0,0,1,5.83,4.11,20.27,20.27,0,0,1,4.41,6,20.62,20.62,0,0,1-1.37,19.12,20.85,20.85,0,0,1-8.06,7,24.18,24.18,0,0,1-21.35,0,29.26,29.26,0,0,1-8.62-6.59,39.37,39.37,0,0,1-6-8.77Z"/><path class="cls-1" d="M316.36,193.07h40.57v8.11H325v20.29h29.92v8.11H325V256h32v8.11H316.36Z"/><path class="cls-1" d="M420.83,264.08l-9-21.3H383.2l-9,21.3h-9.64l33-74.55,33,74.55Zm-23.33-55-10.85,25.56h21.71Z"/><path class="cls-1" d="M424.89,201.19v-8.11H470v8.11H451.77v62.89h-8.62V201.19Z"/><path class="cls-1" d="M479.16,193.07h40.57v8.11h-32v20.29H517.7v8.11H487.78V256h32v8.11H479.16Z"/><path class="cls-1" d="M534.94,193.07h19.27a28.3,28.3,0,0,1,12.32,2.59,21.06,21.06,0,0,1,8.62,7.35,19.92,19.92,0,0,1,3.2,11.36,19.38,19.38,0,0,1-4.72,13.34,23.18,23.18,0,0,1-12.22,7.15l21.2,29.21H572l-19.78-28.4h-8.62v28.4h-8.62Zm19.27,7.61H543.56v27.39h10.65q6.9,0,11.21-3.6t4.31-10.09q0-6.59-4.31-10.14T554.21,200.68Z"/><path class="cls-1" d="M670.86,264.08l-9-21.3h-28.6l-9,21.3h-9.64l33-74.55,33,74.55Zm-23.33-55-10.85,25.56h21.71Z"/><path class="cls-1" d="M691.75,242.57a39,39,0,0,0,8,10.45,15.6,15.6,0,0,0,10.8,4,13,13,0,0,0,9.13-3.14,10.37,10.37,0,0,0,3.45-8,12,12,0,0,0-2.23-7.61A16.64,16.64,0,0,0,715,233.6a68.9,68.9,0,0,0-7.66-3.2q-2.64-.91-5.88-2.38a30.74,30.74,0,0,1-6.19-3.75,18.46,18.46,0,0,1-4.82-5.63,16.58,16.58,0,0,1-1.88-8.22,17.24,17.24,0,0,1,2.64-9.43,18.3,18.3,0,0,1,7.3-6.54,23.09,23.09,0,0,1,10.65-2.38,22.09,22.09,0,0,1,10.09,2.18,24.78,24.78,0,0,1,7.35,5.58,28.72,28.72,0,0,1,4.77,7.15l-7.4,4.26a29.3,29.3,0,0,0-3.35-5.17,16.75,16.75,0,0,0-4.92-4.16,14.22,14.22,0,0,0-7-1.62q-5.78,0-8.42,2.79a8.87,8.87,0,0,0-2.64,6.24,10.41,10.41,0,0,0,3.55,7.81q3.55,3.35,12.88,6.59a49.53,49.53,0,0,1,6,2.64,26.46,26.46,0,0,1,5.83,4.11,20.29,20.29,0,0,1,4.41,6,20.62,20.62,0,0,1-1.37,19.12,20.84,20.84,0,0,1-8.06,7,24.18,24.18,0,0,1-21.35,0,29.26,29.26,0,0,1-8.62-6.59,39.33,39.33,0,0,1-6-8.77Z"/><path class="cls-1" d="M744.7,193.07h8.62v71H744.7Z"/><path class="cls-1" d="M818.24,264.08l-9-21.3h-28.6l-9,21.3h-9.64l33-74.55,33,74.55Zm-23.33-55-10.85,25.56h21.71Z"/><path class="cls-1" d="M54.67,304.75H45.93l-1.72,4H40.86l7.87-17.48h3.2l7.89,17.48h-3.4Zm-1.07-2.55-3.3-7.64L47,302.2Z"/><path class="cls-1" d="M104.45,291.31l-5.79,17.48H95.21L90.9,295.86,86.5,308.79H83l-5.79-17.48h3.37L85,304.6l4.52-13.28h3l4.42,13.36,4.47-13.36Z"/><path class="cls-1" d="M122.88,304.75h-8.74l-1.72,4h-3.35l7.87-17.48h3.2L128,308.79h-3.4Zm-1.07-2.55-3.3-7.64-3.27,7.64Z"/><path class="cls-1" d="M141.73,302.62v6.17h-3.25v-6.12l-6.87-11.36h3.47l5.12,8.51,5.17-8.51h3.2Z"/><path class="cls-1" d="M170.92,307.88a8.6,8.6,0,0,1-3.37-3.22,9.28,9.28,0,0,1,0-9.21,8.6,8.6,0,0,1,3.37-3.22,10.58,10.58,0,0,1,9.64,0,8.63,8.63,0,0,1,3.37,3.21,9.33,9.33,0,0,1,0,9.24,8.63,8.63,0,0,1-3.37,3.21,10.58,10.58,0,0,1-9.64,0Zm8-2.47a5.69,5.69,0,0,0,2.2-2.2,6.64,6.64,0,0,0,0-6.32,5.69,5.69,0,0,0-2.2-2.2,6.68,6.68,0,0,0-6.29,0,5.69,5.69,0,0,0-2.2,2.2,6.64,6.64,0,0,0,0,6.32,5.68,5.68,0,0,0,2.2,2.2,6.68,6.68,0,0,0,6.29,0Z"/><path class="cls-1" d="M196.84,294v5.32h8.44v2.75h-8.44v6.69h-3.25V291.31h12.76V294Z"/><path class="cls-1" d="M226.37,291.31h3.25V306h9.14v2.75H226.37Z"/><path class="cls-1" d="M246.32,291.31h3.25v17.48h-3.25Z"/><path class="cls-1" d="M262.53,294v5.32H271v2.75h-8.44v6.69h-3.25V291.31H272V294Z"/><path class="cls-1" d="M293.29,306.07v2.72H280.18V291.31h12.76V294h-9.51v4.54h8.44v2.67h-8.44v4.82Z"/><path class="cls-1" d="M315.3,308.47a8.14,8.14,0,0,1-3-1.52l1.12-2.52a8.82,8.82,0,0,0,2.63,1.39,9.56,9.56,0,0,0,3.13.54,5.41,5.41,0,0,0,2.91-.62,1.89,1.89,0,0,0,1-1.65,1.6,1.6,0,0,0-.54-1.24,3.78,3.78,0,0,0-1.36-.76q-.82-.27-2.25-.62a26.08,26.08,0,0,1-3.23-.95,5.31,5.31,0,0,1-2.12-1.49,4,4,0,0,1-.89-2.73,4.66,4.66,0,0,1,.79-2.63,5.32,5.32,0,0,1,2.37-1.89,9.61,9.61,0,0,1,3.88-.7,12.55,12.55,0,0,1,3.15.4,8.7,8.7,0,0,1,2.67,1.15l-1,2.52a10.11,10.11,0,0,0-2.4-1,9,9,0,0,0-2.42-.35,5.06,5.06,0,0,0-2.86.65,2,2,0,0,0-.94,1.72,1.56,1.56,0,0,0,.54,1.22,3.87,3.87,0,0,0,1.36.75q.82.27,2.25.62a23.66,23.66,0,0,1,3.2.94,5.48,5.48,0,0,1,2.13,1.49,3.92,3.92,0,0,1,.89,2.7,4.6,4.6,0,0,1-.79,2.62,5.35,5.35,0,0,1-2.38,1.87,9.71,9.71,0,0,1-3.9.7A13.34,13.34,0,0,1,315.3,308.47Z"/><path class="cls-1" d="M337.83,307.88a8.6,8.6,0,0,1-3.37-3.22,9.28,9.28,0,0,1,0-9.21,8.6,8.6,0,0,1,3.37-3.22,10.58,10.58,0,0,1,9.64,0,8.63,8.63,0,0,1,3.37,3.21,9.33,9.33,0,0,1,0,9.24,8.63,8.63,0,0,1-3.37,3.21,10.58,10.58,0,0,1-9.64,0Zm8-2.47a5.69,5.69,0,0,0,2.2-2.2,6.64,6.64,0,0,0,0-6.32,5.69,5.69,0,0,0-2.2-2.2,6.68,6.68,0,0,0-6.29,0,5.69,5.69,0,0,0-2.2,2.2,6.64,6.64,0,0,0,0,6.32,5.68,5.68,0,0,0,2.2,2.2,6.68,6.68,0,0,0,6.29,0Z"/><path class="cls-1" d="M375.64,294v5.32h8.44v2.75h-8.44v6.69h-3.25V291.31h12.76V294Z"/><path class="cls-1" d="M403.87,304.75h-8.74l-1.72,4h-3.35l7.87-17.48h3.2L409,308.79h-3.4Zm-1.07-2.55-3.3-7.64-3.27,7.64Z"/><path class="cls-1" d="M427.67,308.79l-3.57-5.12a6.52,6.52,0,0,1-.67,0h-3.95v5.09h-3.25V291.31h7.19a9.67,9.67,0,0,1,4,.75,5.76,5.76,0,0,1,2.58,2.15,6,6,0,0,1,.9,3.32,5.92,5.92,0,0,1-1,3.4,5.72,5.72,0,0,1-2.76,2.12l4,5.74ZM426.5,295a5,5,0,0,0-3.22-.9h-3.8v7h3.8a4.94,4.94,0,0,0,3.22-.91,3.17,3.17,0,0,0,1.1-2.58A3.13,3.13,0,0,0,426.5,295Z"/><path class="cls-1" d="M466,301.29a4.41,4.41,0,0,1,.85,2.76,4,4,0,0,1-1.75,3.51,8.78,8.78,0,0,1-5.09,1.24h-8.69V291.31h8.19a8,8,0,0,1,4.77,1.21,3.89,3.89,0,0,1,1.67,3.33,4.38,4.38,0,0,1-.6,2.3,4.11,4.11,0,0,1-1.65,1.55A4.61,4.61,0,0,1,466,301.29Zm-11.44-7.43v4.82h4.59a4.67,4.67,0,0,0,2.61-.61,2,2,0,0,0,.91-1.79,2,2,0,0,0-.91-1.81,4.67,4.67,0,0,0-2.61-.61Zm9,9.86q0-2.52-3.77-2.52h-5.24v5h5.24Q463.62,306.24,463.62,303.72Z"/><path class="cls-1" d="M488.47,306.07v2.72H475.36V291.31h12.76V294H478.6v4.54H487v2.67H478.6v4.82Z"/><path class="cls-1" d="M512.61,291.31v17.48h-3.25V301.3h-9v7.49h-3.25V291.31h3.25v7.22h9v-7.22Z"/><path class="cls-1" d="M522.3,291.31h3.25v17.48H522.3Z"/><path class="cls-1" d="M550.79,291.31v17.48h-2.67L538.48,297v11.83h-3.22V291.31h2.67l9.64,11.83V291.31Z"/><path class="cls-1" d="M560.48,291.31h7.64a11,11,0,0,1,5,1.09,8,8,0,0,1,3.37,3.07,9.36,9.36,0,0,1,0,9.16,8,8,0,0,1-3.37,3.07,11,11,0,0,1-5,1.09h-7.64ZM568,306a7.42,7.42,0,0,0,3.38-.74,5.27,5.27,0,0,0,2.25-2.1,6.73,6.73,0,0,0,0-6.32,5.27,5.27,0,0,0-2.25-2.1,7.42,7.42,0,0,0-3.38-.74h-4.25v12Z"/><path class="cls-1" d="M598,291.31h3.25v17.48H598Z"/><path class="cls-1" d="M614.48,294.06h-5.79v-2.75h14.83v2.75h-5.79v14.73h-3.25Z"/><path class="cls-1" d="M633.76,290.66a2,2,0,0,1,.57,1.47,3.43,3.43,0,0,1-.11.87q-.11.42-.44,1.27l-1.3,3.55h-2l1-3.85a1.67,1.67,0,0,1-.86-.69,2.11,2.11,0,0,1-.31-1.16,2,2,0,0,1,.57-1.47,2.11,2.11,0,0,1,2.9,0Z"/><path class="cls-1" d="M644.43,308.47a8.15,8.15,0,0,1-3-1.52l1.12-2.52a8.83,8.83,0,0,0,2.63,1.39,9.56,9.56,0,0,0,3.13.54,5.41,5.41,0,0,0,2.91-.62,1.89,1.89,0,0,0,1-1.65,1.6,1.6,0,0,0-.54-1.24,3.78,3.78,0,0,0-1.36-.76q-.82-.27-2.25-.62a26.1,26.1,0,0,1-3.23-.95,5.32,5.32,0,0,1-2.12-1.49,4,4,0,0,1-.89-2.73,4.67,4.67,0,0,1,.79-2.63,5.32,5.32,0,0,1,2.37-1.89,9.61,9.61,0,0,1,3.88-.7,12.55,12.55,0,0,1,3.15.4,8.7,8.7,0,0,1,2.67,1.15l-1,2.52a10.13,10.13,0,0,0-2.4-1,9,9,0,0,0-2.42-.35,5.06,5.06,0,0,0-2.86.65,2,2,0,0,0-.94,1.72,1.56,1.56,0,0,0,.54,1.22,3.88,3.88,0,0,0,1.36.75q.82.27,2.25.62a23.71,23.71,0,0,1,3.2.94,5.49,5.49,0,0,1,2.13,1.49,3.92,3.92,0,0,1,.89,2.7,4.6,4.6,0,0,1-.79,2.62,5.35,5.35,0,0,1-2.38,1.87,9.7,9.7,0,0,1-3.89.7A13.34,13.34,0,0,1,644.43,308.47Z"/><path class="cls-1" d="M686.84,304.75H678.1l-1.72,4H673l7.87-17.48h3.2L692,308.79h-3.4Zm-1.07-2.55-3.3-7.64-3.27,7.64Z"/><path class="cls-1" d="M714.73,291.31v17.48h-3.25V301.3h-9v7.49H699.2V291.31h3.25v7.22h9v-7.22Z"/><path class="cls-1" d="M737.53,306.07v2.72H724.42V291.31h12.76V294h-9.51v4.54h8.44v2.67h-8.44v4.82Z"/><path class="cls-1" d="M757.48,304.75h-8.74l-1.72,4h-3.35l7.87-17.48h3.2l7.89,17.48h-3.4Zm-1.07-2.55-3.3-7.64-3.27,7.64Z"/><path class="cls-1" d="M769.84,291.31h7.64a11,11,0,0,1,5,1.09,8,8,0,0,1,3.37,3.07,9.36,9.36,0,0,1,0,9.16,8,8,0,0,1-3.37,3.07,11,11,0,0,1-5,1.09h-7.64ZM777.33,306a7.42,7.42,0,0,0,3.38-.74,5.27,5.27,0,0,0,2.25-2.1,6.73,6.73,0,0,0,0-6.32,5.27,5.27,0,0,0-2.25-2.1,7.42,7.42,0,0,0-3.38-.74h-4.25v12Z"/></g></g></svg>